<svg viewBox="0 0 16 22" fill="none" xmlns="http://www.w3.org/2000/svg"><path d="M15.5 8.15c0-3.95-3.36-7.15-7.5-7.15-4.14 0-7.5 3.2-7.5 7.15v.43c0 1.58.52 3.12 1.48 4.4l6 8.01h.03l6-8a7.34 7.34 0 0 0 1.49-4.41v-.43Z" stroke="#2D383F" stroke-linecap="round" stroke-linejoin="round"/><path d="M6.53 5.29a3.51 3.51 0 0 1 2.94 0c.92.42 1.6 1.23 1.82 2.18a3.1 3.1 0 0 1-.65 2.73 3.44 3.44 0 0 1-2.64 1.21c-1.03 0-2-.45-2.64-1.21a3.1 3.1 0 0 1-.65-2.73c.22-.95.9-1.76 1.82-2.18Z" stroke="#2D383F" stroke-linecap="round" stroke-linejoin="round"/></svg>