<svg viewBox="0 0 22 16" fill="none" xmlns="http://www.w3.org/2000/svg"><path d="M10.69 13.24a9.72 9.72 0 0 0-5.41-6.54 10.31 10.31 0 0 0-4.28-.96c.09 2.03.83 4 2.18 5.63a10.15 10.15 0 0 0 7.75 3.63 9.32 9.32 0 0 0-.24-1.76Zm0 0a9.6 9.6 0 0 0-4.02-5.75l.13-.61a9.65 9.65 0 0 1 4.2-5.88 9.65 9.65 0 0 1 4.33 6.49 9.64 9.64 0 0 0-4.02 5.75m-.62 0c.14.59.22 1.17.24 1.76a10.49 10.49 0 0 0 2.61-.3l.02-.02c-.8.2-1.64.31-2.5.32m.25-1.76a9.72 9.72 0 0 1 5.41-6.54c1.36-.63 2.82-.95 4.28-.96-.09 2.03-.83 4-2.18 5.63a10.15 10.15 0 0 1-7.75 3.63m.24-1.76a9.32 9.32 0 0 0-.24 1.76" stroke="#0266C1" stroke-linecap="round" stroke-linejoin="round"/></svg>