<svg viewBox="0 0 20 20" fill="none" xmlns="http://www.w3.org/2000/svg"><path d="M19.53 11.38a.7.7 0 0 0-.6.13 7.5 7.5 0 0 1-12.36-5.75c0-.87.15-1.71.4-2.48a6.9 6.9 0 0 1 1.23-2.2.66.66 0 0 0-.1-.93.7.7 0 0 0-.59-.13 10.18 10.18 0 0 0-4.55 17 10.07 10.07 0 0 0 13.42.8 10.12 10.12 0 0 0 3.58-5.62c.13-.38-.07-.74-.43-.82Zm-3.91 5.36a8.71 8.71 0 0 1-11.66-.69 8.82 8.82 0 0 1 2.17-14.06c-.12.29-.25.57-.35.88a8.88 8.88 0 0 0 2.1 9.18 8.82 8.82 0 0 0 10.24 1.64 9.32 9.32 0 0 1-2.5 3.05Z" fill="#2D383F"/></svg>