<svg viewBox="0 0 22 22" fill="none" xmlns="http://www.w3.org/2000/svg"><path d="M18.14 8.77h-5.35a3.05 3.05 0 0 0-3.04 3.06 3.05 3.05 0 0 0 3.04 3.05h2.32a3.05 3.05 0 0 1 3.03 3.06 3.05 3.05 0 0 1-3.03 3.06h-11.25m2.85-5.07a2.87 2.87 0 0 0-2.85-2.88 2.87 2.87 0 0 0-2.86 2.88v.1a3 3 0 0 0 .57 1.76l2.28 3.17h.01l2.29-3.17a3 3 0 0 0 .56-1.75v-.11Zm-2.3-1.18h.02a1.26 1.26 0 0 1 .43 1.94c-.24.3-.6.48-.99.48h-.03a1.27 1.27 0 0 1-.55-2.42h.01c.35-.17.76-.17 1.1 0Zm16.59-10.85c0-1.6-1.28-2.9-2.86-2.9a2.89 2.89 0 0 0-2.85 2.9c0 .62.2 1.24.57 1.74l2.28 3.09s0 0 0 0l2.29-3.09c.37-.5.57-1.12.57-1.74Zm-2.31-1.25.04.02a1.22 1.22 0 0 1 .42 1.88l-.01.02c-.24.29-.6.45-.96.45h-.07c-.37 0-.72-.16-.96-.45l-.01-.02a1.23 1.23 0 0 1 .42-1.88l.04-.02a1.3 1.3 0 0 1 1.09 0Z" stroke="#0266C1" stroke-linecap="round"/></svg>