<svg viewBox="0 0 20 18" fill="none" xmlns="http://www.w3.org/2000/svg"><path d="M19.72 12.24c.62-2.1.1-4.47-.44-6.12a14.9 14.9 0 0 0-.55-1.47c.27-.11.44-.4.45-.7v-3.19c0-.42-.32-.76-.71-.76h-8.73c-.2 0-.35.17-.35.38v.03c.12 2.29-.04 3.84-.5 4.94l-.02.04v.05c-.17.4-.4.77-.68 1.08l-.04.03v.02c-.41.43-.9.78-1.42 1.04-.91.43-1.85.8-2.8 1.12l-.18.07c-3.32 1.18-3.76 3.33-3.75 4.4a.4.4 0 0 0 0 .05v2.73c0 .13.07.26.17.33.81.53 1.7.94 2.61 1.21.19.06.39-.06.44-.26a.41.41 0 0 0 .01-.12v-.09h.52v.38c0 .2.13.36.3.39.31.05.62.1.92.12.1 0 .2-.03.27-.1a.4.4 0 0 0 .12-.28v-.48h.52v.54c0 .2.16.38.35.38.3 0 .6 0 .92-.05.18-.01.33-.18.33-.38v-.5h.52v.34c0 .21.15.39.35.39h.06c.65-.11 1.3-.28 1.92-.5l.06-.03c2.48-1.53 4.06-.27 4.12-.21.07.05.14.08.22.08h.44c.2 0 .36-.18.36-.39v-.64h.5v.64c0 .2.16.38.36.38h1.14c.2 0 .36-.17.36-.38v-.64h.52v.64c0 .2.16.38.36.38h.87c.2 0 .36-.17.36-.38v-4.12a.38.38 0 0 0-.28-.39Zm-8.43-11.47h7.16v3.17h-7.16v-3.17Zm-4.46 7.62v.03c.29.25.56.53.8.84a.77.77 0 0 0-.1.38c0 .4.3.74.68.74.37 0 .68-.32.68-.73 0-.38-.26-.7-.62-.73a5.76 5.76 0 0 0-.76-.9c.32-.2.62-.43.9-.68.34.34.66.72.95 1.12-.12.38.06.8.42.93.35.13.74-.07.86-.45s-.06-.8-.42-.93a.63.63 0 0 0-.22-.04h-.09c-.31-.43-.65-.82-1.01-1.2.16-.22.31-.46.44-.71.55.3 1.08.65 1.6 1.03-.01.4.3.74.67.75.38 0 .7-.33.7-.74 0-.4-.3-.74-.68-.74a.72.72 0 0 0-.32.08c-.53-.4-1.1-.75-1.67-1.07.39-1.1.56-2.58.48-4.58h.46v3.16c0 .42.32.77.71.77h6.66c.09.2.25.55.42 1.01h-.15c-2.16.02-3.9 1.91-3.88 4.23.01 1.32.6 2.56 1.58 3.35-2.87.81-7.2 1.78-10.83 1.53.67-2.89-.13-4.66-.65-5.44.8-.3 1.6-.63 2.39-1Zm-3.1 1.22c.38.49 1.38 2.12.64 5.12a8.47 8.47 0 0 1-3.64-1.18 2.6 2.6 0 0 1-.03-.27v-.02c-.02-.82.26-2.58 3.02-3.65Zm15.4 6.75v-.63c0-.22-.17-.39-.36-.39h-1.23c-.2 0-.36.17-.36.39v.63h-.44v-.63c0-.22-.16-.39-.35-.39h-1.23c-.2 0-.35.17-.35.39v.62c-.49-.33-2.25-1.27-4.75.24-.45.15-.9.28-1.36.38v-.27c0-.2-.16-.38-.36-.38h-1.22c-.2 0-.36.17-.36.38v.53h-.18v-.54c0-.2-.16-.38-.35-.38h-1.24c-.2 0-.35.17-.35.38v.46l-.18-.03v-.43c0-.2-.16-.38-.36-.38h-1.23c-.18 0-.33.14-.36.34a9.24 9.24 0 0 1-1.8-.88v-1.37c1.54.89 3.54 1.22 5.68 1.22 5.66 0 12.13-2.33 12.9-2.61v3.35h-.17Zm-.18-4.03c-.3.1-1.05.38-2.07.68a3.56 3.56 0 0 1-1.49-4.6 3.19 3.19 0 0 1 3.25-1.92v.02c.52 1.62 1 3.93.3 5.82Z" fill="#0266C1"/><path d="M12.66 1.23c-.57 0-1.04.5-1.04 1.12 0 .61.47 1.1 1.04 1.1.57 0 1.03-.49 1.03-1.1 0-.62-.46-1.12-1.03-1.12Zm0 1.46a.34.34 0 0 1-.33-.34c0-.2.15-.35.33-.35.17 0 .32.15.32.35 0 .19-.15.34-.32.34Z" fill="#0266C1"/></svg>
