<svg viewBox="0 0 14 15" fill="none" xmlns="http://www.w3.org/2000/svg"><path d="M8.36 0c-.45 0-.87.24-1.14.6-.27.35-.42.78-.53 1.23-.17.73-.22 1.53-.23 2.26-1.27.09-2.4.49-3.36 1.1a1.94 1.94 0 0 0-1.3-.53c-.5.01-.98.24-1.34.72-.68.92-.6 2.42.2 3.31-.06.28-.1.56-.1.84 0 3.02 2.89 5.47 6.44 5.47 3.55 0 6.43-2.45 6.43-5.47 0-.28-.03-.56-.08-.84.79-.89.87-2.39.19-3.3a1.67 1.67 0 0 0-1.35-.73c-.44 0-.9.2-1.3.54a7.03 7.03 0 0 0-3.33-1.11c.02-.67.06-1.37.19-1.9a2 2 0 0 1 .27-.69c.1-.13.17-.18.34-.18.37 0 .41.12.63.43.11.15.24.34.44.53s.51.35.84.35v-1.31c-.1 0-.11 0-.17-.07-.06-.06-.15-.2-.27-.37-.26-.35-.74-.88-1.47-.88Zm3.54.12c-.84 0-1.53.83-1.53 1.85s.69 1.85 1.53 1.85c.85 0 1.53-.83 1.53-1.85s-.68-1.85-1.53-1.85Zm0 .66c.55 0 .99.54.99 1.2 0 .65-.44 1.18-.99 1.18-.54 0-.99-.53-.99-1.19 0-.65.45-1.19 1-1.19Zm-4.9 4.34c3.01 0 5.57 2.02 5.57 4.41 0 2.4-2.56 4.42-5.57 4.42-3.01 0-5.57-2.02-5.57-4.42 0-2.39 2.56-4.41 5.57-4.41Zm-5.17.6c.15 0 .3.04.46.12a5.2 5.2 0 0 0-1.28 1.72c-.2-.5-.15-1.14.1-1.48a.86.86 0 0 1 .72-.37Zm10.34 0c.28-.01.54.12.72.36.25.34.3.97.1 1.48a5.34 5.34 0 0 0-1.28-1.72c.16-.08.31-.13.46-.13Zm-7.35 1.64c-.54 0-.99.53-.99 1.19 0 .66.45 1.19 1 1.19.54 0 .98-.53.98-1.2 0-.65-.44-1.18-.99-1.18Zm4.36 0c-.55 0-.99.53-.99 1.19 0 .66.44 1.19.99 1.19.54 0 .99-.53.99-1.2 0-.65-.45-1.18-1-1.18Zm-4.89 4.04a2.98 2.98 0 0 0 2.71 1.71 3 3 0 0 0 2.72-1.7c-.63.48-1.62.82-2.72.82s-2.08-.34-2.7-.83Z" fill="#2D383F"/></svg>