<svg viewBox="0 0 26 25" fill="none" xmlns="http://www.w3.org/2000/svg"><path d="m25.26 18.08-4.9-5.61h2.36a.5.5 0 0 0 .4-.8l-3.94-5.18h2a.5.5 0 0 0 .38-.84l-4.82-5.48a.5.5 0 0 0-.75 0l-4.83 5.48a.5.5 0 0 0 .38.84h2.03l-1.22 1.58-3.25-3.7a.5.5 0 0 0-.75 0l-4.12 4.7a.5.5 0 0 0 .37.82h1.6l-3.3 4.32a.5.5 0 0 0 .39.8h1.85l-4.07 4.68a.5.5 0 0 0 .38.83h5.54v3.5c0 .54.43.98.97.98h1.53c.54 0 .98-.43.98-.97v-3.51h4.16v3.5c0 .54.43.98.97.98h1.53c.54 0 .97-.44.97-.97v-5.11h6.78a.5.5 0 0 0 .38-.84Zm-15.8 5.92-1.47.03-.03-3.51h1.5v3.48Zm5.17-4.48h-12.08l4.1-4.68a.5.5 0 0 0-.39-.84h-1.95l3.3-4.31a.5.5 0 0 0-.4-.8h-1.5l3-3.43 3.01 3.41-2.11 2.8a.5.5 0 0 0 .4.8h2.37l-4.9 5.62a.5.5 0 0 0 .37.83h6.78v.6Zm2.47 4.47-1.47.04-.03-5.11h1.5v5.07Zm.03-6.08h-8.18l4.9-5.61a.5.5 0 0 0-.37-.83h-2.46l3.96-5.19a.5.5 0 0 0-.4-.8h-1.92l3.72-4.22 3.7 4.22h-1.93a.5.5 0 0 0-.4.81l3.94 5.18h-2.45a.5.5 0 0 0-.37.83l4.9 5.61h-6.64Z" fill="#2D383F"/></svg>