<svg viewBox="0 0 20 20" fill="none" xmlns="http://www.w3.org/2000/svg"><path d="M13.54 6.46a5.04 5.04 0 0 0-3.54-1.49 5.04 5.04 0 0 0-5.03 5.03 5.04 5.04 0 0 0 8.57 3.54 4.93 4.93 0 0 0 0-7.09Zm-.95 6.13a3.66 3.66 0 0 1-2.59 1.06c-1 0-1.93-.4-2.6-1.06a3.66 3.66 0 0 1-1.05-2.59c0-1 .4-1.93 1.06-2.6a3.66 3.66 0 0 1 2.59-1.05c1 0 1.93.4 2.6 1.06a3.66 3.66 0 0 1 1.05 2.59c0 1-.4 1.93-1.06 2.6Zm6.72-3.28h-2.03a.7.7 0 0 0-.7.69c0 .37.32.69.7.69h2.03a.7.7 0 0 0 .69-.69.7.7 0 0 0-.69-.69Zm-9.31 7.28a.7.7 0 0 0-.69.69v2.03c0 .37.32.69.69.69a.7.7 0 0 0 .69-.69v-2.03a.7.7 0 0 0-.69-.7Zm7.06-.48-1.45-1.45c-.24-.27-.69-.27-.95 0a.67.67 0 0 0 0 .95l1.45 1.45c.27.27.69.27.95 0a.67.67 0 0 0 0-.95Zm-7.06-16.11a.7.7 0 0 0-.69.69v2.03c0 .38.32.7.69.7a.7.7 0 0 0 .69-.7v-2.03a.7.7 0 0 0-.69-.69Zm7.09 2.94a.67.67 0 0 0-.95 0l-1.46 1.45a.67.67 0 0 0 0 .95c.24.27.69.27.95 0l1.46-1.45a.67.67 0 0 0 0-.95Zm-14.37 6.37h-2.03a.7.7 0 0 0-.69.69c0 .37.3.69.69.69h2.03a.7.7 0 0 0 .7-.69.7.7 0 0 0-.7-.69Zm2.6 5.35c-.24-.27-.69-.27-.95 0l-1.46 1.45a.67.67 0 0 0 0 .95c.26.27.69.27.95 0l1.46-1.45a.67.67 0 0 0 0-.95Zm0-10.26-1.46-1.46a.67.67 0 0 0-.95 0 .67.67 0 0 0 0 .95l1.46 1.45c.26.27.68.27.95 0a.67.67 0 0 0 0-.95Z" fill="#fff"/></svg>