<svg viewBox="0 0 25 25" fill="none" xmlns="http://www.w3.org/2000/svg"><path d="M24.17 22.28v-15.58a.46.46 0 0 0-.6-.46v.02l-2.09.65c.22-.58.35-1.2.39-1.82a5.1 5.1 0 0 0-10.19 0c.03.6.15 1.18.36 1.74l-3.45-1.23a.5.5 0 0 0-.12 0h-.04a.46.46 0 0 0-.16.03l-7.14 2.78a.46.46 0 0 0-.3.39v15.6a.46.46 0 0 0 .63.43l6.98-2.7 7.97 2.85c.1.03.2.03.3 0l7.14-2.24c.2-.06.33-.25.32-.46Zm-7.4-21.35c2.3 0 4.17 1.86 4.17 4.16 0 1.82-2.72 6.82-4.17 9.27-1.45-2.47-4.16-7.48-4.16-9.27 0-2.3 1.86-4.16 4.16-4.16Zm6.49 21.03-6.24 1.95v-3.53a.46.46 0 0 0-.92 0v3.5l-7.2-2.58v-2.96a.46.46 0 0 0-.92 0v2.96l-6.22 2.43v-7.16l2.28-.93a.46.46 0 1 0-.34-.86l-1.94.79v-6.45l6.22-2.41v1.39a.46.46 0 0 0 .92 0v-1.4l3.55 1.27a64.34 64.34 0 0 0 3.93 7.55.46.46 0 0 0 .79 0 64.59 64.59 0 0 0 3.9-7.5l2.17-.69.02 7.6-2.35.56a.47.47 0 1 0 .11.93h.11l2.13-.52v6.06Z" fill="#2D383F"/><path d="M16.76 2.4a2.7 2.7 0 1 0 0 5.38 2.7 2.7 0 0 0 0-5.38Zm0 4.46a1.77 1.77 0 0 1-1.75-1.77h-.02a1.76 1.76 0 1 1 1.77 1.77Zm-6.06 7.11v.01l-2.24-.97a.46.46 0 0 0-.36 0l-1.9.77a.46.46 0 1 0 .35.86l1.72-.7 2.06.88c.06.02.12.04.18.04a.46.46 0 0 0 .19-.9Zm7.57 2.65a.46.46 0 0 0-.52-.32v-.04l-1.15.28-1.94-.85a.46.46 0 0 0-.37.86l2.08.92a.4.4 0 0 0 .19.04h.1l1.3-.31a.46.46 0 0 0 .31-.58Z" fill="#2D383F"/></svg>