<svg xmlns="http://www.w3.org/2000/svg" xmlns:xlink="http://www.w3.org/1999/xlink"><symbol id="sprite-icon-arrow-links" fill="none" viewBox="0 0 9 14"><path stroke="#2D383F" stroke-width="2" d="m1.5 13 6-6-6-6"/></symbol><use xlink:href="#sprite-icon-arrow-links" width="9" height="14"/><view id="sprite-icon-arrow-links-view" viewBox="0 0 9 14"/><symbol id="sprite-icon-arrow" fill="none" viewBox="0 0 14 9"><path fill="#fff" d="M.65 4.85a.5.5 0 0 1 0-.7l3.18-3.19a.5.5 0 1 1 .7.71l-2.82 2.83 2.83 2.83a.5.5 0 1 1-.71.7zm13.35.15h-13v-1h13z"/></symbol><use xlink:href="#sprite-icon-arrow" width="14" height="9" y="14"/><view id="sprite-icon-arrow-view" viewBox="0 14 14 9"/><symbol id="sprite-icon-boots" fill="none" viewBox="0 0 20 18"><path fill="#0266C1" d="M19.72 12.24c.62-2.1.1-4.47-.44-6.12a15 15 0 0 0-.55-1.47c.27-.11.44-.4.45-.7v-3.19c0-.42-.32-.76-.71-.76h-8.73c-.2 0-.35.17-.35.38v.03c.12 2.29-.04 3.84-.5 4.94l-.02.04v.05q-.26.6-.68 1.08l-.04.03v.02q-.63.65-1.42 1.04-1.37.64-2.8 1.12l-.18.07c-3.32 1.18-3.76 3.33-3.75 4.4v2.78q.01.21.17.33 1.23.8 2.61 1.21c.19.06.39-.06.44-.26l.01-.12v-.09h.52v.38c0 .2.13.36.3.39q.47.08.92.12.16 0 .27-.1a.4.4 0 0 0 .12-.28v-.48h.52v.54c0 .2.16.38.35.38q.45.01.92-.05c.18-.01.33-.18.33-.38v-.5h.52v.34c0 .21.15.39.35.39h.06q.98-.17 1.92-.5l.06-.03c2.48-1.53 4.06-.27 4.12-.21q.1.08.22.08h.44c.2 0 .36-.18.36-.39v-.64h.5v.64c0 .2.16.38.36.38h1.14c.2 0 .36-.17.36-.38v-.64h.52v.64c0 .2.16.38.36.38h.87c.2 0 .36-.17.36-.38v-4.12a.4.4 0 0 0-.28-.39m-8.43-11.47h7.16v3.17h-7.16zm-4.46 7.62v.03q.44.37.8.84a1 1 0 0 0-.1.38c0 .4.3.74.68.74.37 0 .68-.32.68-.73 0-.38-.26-.7-.62-.73a6 6 0 0 0-.76-.9q.48-.3.9-.68.51.51.95 1.12c-.12.38.06.8.42.93.35.13.74-.07.86-.45s-.06-.8-.42-.93l-.22-.04h-.09q-.47-.64-1.01-1.2.24-.33.44-.71.82.46 1.6 1.03c-.01.4.3.74.67.75.38 0 .7-.33.7-.74s-.3-.74-.68-.74a1 1 0 0 0-.32.08q-.8-.6-1.67-1.07c.39-1.1.56-2.58.48-4.58h.46v3.16c0 .42.32.77.71.77h6.66q.15.31.42 1.01h-.15c-2.16.02-3.9 1.91-3.88 4.23.01 1.32.6 2.56 1.58 3.35-2.87.81-7.2 1.78-10.83 1.53.67-2.89-.13-4.66-.65-5.44q1.2-.45 2.39-1Zm-3.1 1.22c.38.49 1.38 2.12.64 5.12a8.5 8.5 0 0 1-3.64-1.18l-.03-.27v-.02c-.02-.82.26-2.58 3.02-3.65Zm15.4 6.75v-.63c0-.22-.17-.39-.36-.39h-1.23c-.2 0-.36.17-.36.39v.63h-.44v-.63c0-.22-.16-.39-.35-.39h-1.23c-.2 0-.35.17-.35.39v.62c-.49-.33-2.25-1.27-4.75.24q-.67.23-1.36.38v-.27c0-.2-.16-.38-.36-.38h-1.22c-.2 0-.36.17-.36.38v.53h-.18v-.54c0-.2-.16-.38-.35-.38h-1.24c-.2 0-.35.17-.35.38v.46l-.18-.03v-.43c0-.2-.16-.38-.36-.38h-1.23c-.18 0-.33.14-.36.34a9 9 0 0 1-1.8-.88v-1.37c1.54.89 3.54 1.22 5.68 1.22 5.66 0 12.13-2.33 12.9-2.61v3.35h-.17Zm-.18-4.03c-.3.1-1.05.38-2.07.68a3.56 3.56 0 0 1-1.49-4.6 3.2 3.2 0 0 1 3.25-1.92v.02c.52 1.62 1 3.93.3 5.82Z"/><path fill="#0266C1" d="M12.66 1.23c-.57 0-1.04.5-1.04 1.12 0 .61.47 1.1 1.04 1.1s1.03-.49 1.03-1.1-.46-1.12-1.03-1.12m0 1.46a.34.34 0 0 1-.33-.34c0-.2.15-.35.33-.35.17 0 .32.15.32.35s-.15.34-.32.34"/></symbol><use xlink:href="#sprite-icon-boots" width="20" height="18" y="23"/><view id="sprite-icon-boots-view" viewBox="0 23 20 18"/><symbol id="sprite-icon-cross" fill="none" viewBox="0 0 20 20"><path stroke="#FFF" stroke-width="2" d="m1 1 9 9m9 9-9-9m0 0 9-9-18 18"/></symbol><use xlink:href="#sprite-icon-cross" width="20" height="20" y="41"/><view id="sprite-icon-cross-view" viewBox="0 41 20 20"/><symbol id="sprite-icon-crown" fill="none" viewBox="0 0 22 21"><path stroke="#0266C1" d="M17.69 20h-13.38m16.69-12.89-2.93 9.7h-14.14l-2.93-9.7 5.77 3.5 4.23-8.61 4.23 8.61z"/></symbol><use xlink:href="#sprite-icon-crown" width="22" height="21" y="61"/><view id="sprite-icon-crown-view" viewBox="0 61 22 21"/><symbol id="sprite-icon-forest" fill="none" viewBox="0 0 26 25"><path fill="#2D383F" d="m25.26 18.08-4.9-5.61h2.36a.5.5 0 0 0 .4-.8l-3.94-5.18h2a.5.5 0 0 0 .38-.84l-4.82-5.48a.5.5 0 0 0-.75 0l-4.83 5.48a.5.5 0 0 0 .38.84h2.03l-1.22 1.58-3.25-3.7a.5.5 0 0 0-.75 0l-4.12 4.7a.5.5 0 0 0 .37.82h1.6l-3.3 4.32a.5.5 0 0 0 .39.8h1.85l-4.07 4.68a.5.5 0 0 0 .38.83h5.54v3.5c0 .54.43.98.97.98h1.53c.54 0 .98-.43.98-.97v-3.51h4.16v3.5c0 .54.43.98.97.98h1.53c.54 0 .97-.44.97-.97v-5.11h6.78a.5.5 0 0 0 .38-.84m-15.8 5.92-1.47.03-.03-3.51h1.5zm5.17-4.48h-12.08l4.1-4.68a.5.5 0 0 0-.39-.84h-1.95l3.3-4.31a.5.5 0 0 0-.4-.8h-1.5l3-3.43 3.01 3.41-2.11 2.8a.5.5 0 0 0 .4.8h2.37l-4.9 5.62a.5.5 0 0 0 .37.83h6.78zm2.47 4.47-1.47.04-.03-5.11h1.5zm.03-6.08h-8.18l4.9-5.61a.5.5 0 0 0-.37-.83h-2.46l3.96-5.19a.5.5 0 0 0-.4-.8h-1.92l3.72-4.22 3.7 4.22h-1.93a.5.5 0 0 0-.4.81l3.94 5.18h-2.45a.5.5 0 0 0-.37.83l4.9 5.61z"/></symbol><use xlink:href="#sprite-icon-forest" width="26" height="25" y="82"/><view id="sprite-icon-forest-view" viewBox="0 82 26 25"/><symbol id="sprite-icon-leaf" fill="none" viewBox="0 0 22 16"><path stroke="#0266C1" stroke-linecap="round" stroke-linejoin="round" d="M10.69 13.24a9.7 9.7 0 0 0-5.41-6.54 10 10 0 0 0-4.28-.96c.09 2.03.83 4 2.18 5.63a10.2 10.2 0 0 0 7.75 3.63 9 9 0 0 0-.24-1.76m0 0a9.6 9.6 0 0 0-4.02-5.75l.13-.61a9.7 9.7 0 0 1 4.2-5.88 9.7 9.7 0 0 1 4.33 6.49 9.6 9.6 0 0 0-4.02 5.75m-.62 0q.21.88.24 1.76a11 11 0 0 0 2.61-.3l.02-.02q-1.2.3-2.5.32m.25-1.76a9.7 9.7 0 0 1 5.41-6.54c1.36-.63 2.82-.95 4.28-.96-.09 2.03-.83 4-2.18 5.63a10.2 10.2 0 0 1-7.75 3.63m.24-1.76a9 9 0 0 0-.24 1.76"/></symbol><use xlink:href="#sprite-icon-leaf" width="22" height="16" y="107"/><view id="sprite-icon-leaf-view" viewBox="0 107 22 16"/><symbol id="sprite-icon-level" fill="none" viewBox="0 0 20 22"><path stroke="#FFF" stroke-linecap="round" stroke-miterlimit="16" d="M19 21h-3.6v-20h3.6zm-7.2 0v-14.55h-3.6v14.55zm-7.2 0v-9.1h-3.6v9.1z"/></symbol><use xlink:href="#sprite-icon-level" width="20" height="22" y="123"/><view id="sprite-icon-level-view" viewBox="0 123 20 22"/><symbol id="sprite-icon-mail" fill="none" viewBox="0 0 22 16"><path stroke="#2D383F" stroke-linecap="round" stroke-linejoin="round" d="M21 2.56v10.88c0 .86-.64 1.56-1.43 1.56h-17.14c-.79 0-1.43-.7-1.43-1.56v-10.88m20 0c0-.86-.64-1.56-1.43-1.56h-17.14c-.79 0-1.43.7-1.43 1.56m20 0-8.14 7.6c-1.07 1-2.65 1-3.72 0l-8.14-7.6"/></symbol><use xlink:href="#sprite-icon-mail" width="22" height="16" y="145"/><view id="sprite-icon-mail-view" viewBox="0 145 22 16"/><symbol id="sprite-icon-map" fill="none" viewBox="0 0 25 25"><path fill="#2D383F" d="M24.17 22.28v-15.58a.46.46 0 0 0-.6-.46v.02l-2.09.65q.33-.88.39-1.82a5.1 5.1 0 0 0-10.19 0q.05.9.36 1.74l-3.45-1.23h-.16l-.16.03-7.14 2.78a.5.5 0 0 0-.3.39v15.6a.46.46 0 0 0 .63.43l6.98-2.7 7.97 2.85q.15.05.3 0l7.14-2.24c.2-.06.33-.25.32-.46m-7.4-21.35c2.3 0 4.17 1.86 4.17 4.16 0 1.82-2.72 6.82-4.17 9.27-1.45-2.47-4.16-7.48-4.16-9.27 0-2.3 1.86-4.16 4.16-4.16m6.49 21.03-6.24 1.95v-3.53a.46.46 0 0 0-.92 0v3.5l-7.2-2.58v-2.96a.46.46 0 0 0-.92 0v2.96l-6.22 2.43v-7.16l2.28-.93a.46.46 0 1 0-.34-.86l-1.94.79v-6.45l6.22-2.41v1.39a.46.46 0 0 0 .92 0v-1.4l3.55 1.27a64 64 0 0 0 3.93 7.55.46.46 0 0 0 .79 0 65 65 0 0 0 3.9-7.5l2.17-.69.02 7.6-2.35.56a.47.47 0 1 0 .11.93h.11l2.13-.52z"/><path fill="#2D383F" d="M16.76 2.4a2.7 2.7 0 1 0 0 5.38 2.7 2.7 0 0 0 0-5.38m0 4.46a1.77 1.77 0 0 1-1.75-1.77h-.02a1.76 1.76 0 1 1 1.77 1.77m-6.06 7.11-2.24-.97a.5.5 0 0 0-.36 0l-1.9.77a.46.46 0 1 0 .35.86l1.72-.7 2.06.88.18.04a.46.46 0 0 0 .19-.9Zm7.57 2.65a.46.46 0 0 0-.52-.32v-.04l-1.15.28-1.94-.85a.46.46 0 0 0-.37.86l2.08.92a.4.4 0 0 0 .19.04h.1l1.3-.31a.46.46 0 0 0 .31-.58"/></symbol><use xlink:href="#sprite-icon-map" width="25" height="25" y="161"/><view id="sprite-icon-map-view" viewBox="0 161 25 25"/><symbol id="sprite-icon-markstar" fill="none" viewBox="0 0 16 16"><path fill="#fff" d="m7.63 11.7 4.72 2.6-1.25-4.92 4.17-3.3-5.5-.44-2.14-4.64-2.14 4.64-5.49.43 4.16 3.31-1.24 4.92z"/></symbol><use xlink:href="#sprite-icon-markstar" width="16" height="16" y="186"/><view id="sprite-icon-markstar-view" viewBox="0 186 16 16"/><symbol id="sprite-icon-menu" fill="none" viewBox="0 0 22 16"><path fill="#FFF" d="M0 0h22v1.84h-22zm0 14.16h22v1.84h-22zm0-7.08h14.08v1.84h-14.08z"/></symbol><use xlink:href="#sprite-icon-menu" width="22" height="16" y="202"/><view id="sprite-icon-menu-view" viewBox="0 202 22 16"/><symbol id="sprite-icon-moon" fill="none" viewBox="0 0 20 20"><path fill="#FFF" d="M19.53 11.38a.7.7 0 0 0-.6.13 7.5 7.5 0 0 1-12.36-5.75q.01-1.32.4-2.48a7 7 0 0 1 1.23-2.2.66.66 0 0 0-.1-.93.7.7 0 0 0-.59-.13 10.18 10.18 0 0 0-4.55 17 10.07 10.07 0 0 0 13.42.8 10 10 0 0 0 3.58-5.62c.13-.38-.07-.74-.43-.82m-3.91 5.36a8.7 8.7 0 0 1-11.66-.69 8.82 8.82 0 0 1 2.17-14.06q-.19.42-.35.88a8.9 8.9 0 0 0 2.1 9.18 8.8 8.8 0 0 0 10.24 1.64 9 9 0 0 1-2.5 3.05"/></symbol><use xlink:href="#sprite-icon-moon" width="20" height="20" y="218"/><view id="sprite-icon-moon-view" viewBox="0 218 20 20"/><symbol id="sprite-icon-mountains" fill="none" viewBox="0 0 25 25"><path fill="#2D383F" d="m23.42 24.19-7.86-18.28a.48.48 0 0 0-.88 0l-4.74 11-2.93-6.75a.48.48 0 0 0-.88 0l-2.75 6.36-3.34 7.66a.48.48 0 0 0 .44.67h22.5a.48.48 0 0 0 .44-.66m-8.3-16.9 3.1 7.2h-1.1l-1.96-2.17a.48.48 0 0 0-.76.07l-.73 1.13h-1.23l2.67-6.22Zm-8.55 4.24 2.45 5.66h-1.34a.5.5 0 0 0-.4.22l-.48.76-1.23-1.74a.5.5 0 0 0-.39-.2h-.63zm-5.34 12.37 2.9-6.72h.8l1.5 2.12q.14.2.38.2a.5.5 0 0 0 .4-.21l.73-1.14h1.49l2.48 5.73zm11.73 0-2.5-5.77 1.57-3.65h1.9q.27-.01.4-.22l.54-.82 1.69 1.87q.14.15.35.15h1.7l3.64 8.45zm-5.35-21.82a2.25 2.25 0 0 0-4.35.8v.26a2.25 2.25 0 0 0 .9 4.29l.03.02h3.34a2.68 2.68 0 1 0 .08-5.37m-.05 4.43h-3.34a1.3 1.3 0 1 1-.27-2.59.5.5 0 0 0 .36-.62 1.3 1.3 0 1 1 2.5-.64c.05.25.28.42.53.39h.22a1.73 1.73 0 0 1 0 3.46m16.14-3.87v-.25a2.25 2.25 0 0 0-4.35-.82 2.68 2.68 0 0 0 .1 5.36h3.34a2.25 2.25 0 0 0 .9-4.29Zm.36 2.3a1.3 1.3 0 0 1-1.26 1.03h-3.33a1.73 1.73 0 1 1 0-3.45h.21a.5.5 0 0 0 .52-.38 1.3 1.3 0 1 1 2.5.65.5.5 0 0 0 .36.62c.7.15 1.15.84 1 1.54Z"/></symbol><use xlink:href="#sprite-icon-mountains" width="25" height="25" y="238"/><view id="sprite-icon-mountains-view" viewBox="0 238 25 25"/><symbol id="sprite-icon-ok" fill="none" viewBox="0 0 9 16"><path fill="#2D383F" d="M4.5 2.42c.92 0 1.66.77 1.66 1.71s-.74 1.7-1.66 1.7-1.66-.76-1.66-1.7.74-1.71 1.66-1.71m0 5.84a4.1 4.1 0 0 0 4.01-4.13c0-2.28-1.8-4.13-4.01-4.13s-4 1.85-4 4.13 1.79 4.13 4 4.13m1.62 3.37a8 8 0 0 0 2.33-1c.55-.35.71-1.1.37-1.66a1.15 1.15 0 0 0-1.62-.39 5 5 0 0 1-5.4 0 1.15 1.15 0 0 0-1.62.39c-.34.56-.18 1.3.37 1.66q1.1.7 2.33 1l-2.24 2.3a1.24 1.24 0 0 0 0 1.71 1.16 1.16 0 0 0 1.66 0l2.2-2.26 2.2 2.26c.46.48 1.2.48 1.66 0 .46-.47.46-1.23 0-1.7z"/></symbol><use xlink:href="#sprite-icon-ok" width="9" height="16" y="263"/><view id="sprite-icon-ok-view" viewBox="0 263 9 16"/><symbol id="sprite-icon-path" fill="none" viewBox="0 0 22 22"><path stroke="#0266C1" stroke-linecap="round" d="M18.14 8.77h-5.35a3.05 3.05 0 0 0-3.04 3.06 3.05 3.05 0 0 0 3.04 3.05h2.32a3.05 3.05 0 0 1 3.03 3.06 3.05 3.05 0 0 1-3.03 3.06h-11.25m2.85-5.07a2.87 2.87 0 0 0-2.85-2.88 2.87 2.87 0 0 0-2.86 2.88v.1a3 3 0 0 0 .57 1.76l2.28 3.17h.01l2.29-3.17a3 3 0 0 0 .56-1.75zm-2.3-1.18h.02a1.26 1.26 0 0 1 .43 1.94c-.24.3-.6.48-.99.48h-.03a1.27 1.27 0 0 1-.55-2.42h.01c.35-.17.76-.17 1.1 0Zm16.59-10.85c0-1.6-1.28-2.9-2.86-2.9a2.9 2.9 0 0 0-2.85 2.9c0 .62.2 1.24.57 1.74l2.28 3.09s0 0 0 0l2.29-3.09c.37-.5.57-1.12.57-1.74Zm-2.31-1.25.04.02a1.22 1.22 0 0 1 .42 1.88l-.01.02c-.24.29-.6.45-.96.45h-.07c-.37 0-.72-.16-.96-.45l-.01-.02a1.23 1.23 0 0 1 .42-1.88l.04-.02a1.3 1.3 0 0 1 1.09 0Z"/></symbol><use xlink:href="#sprite-icon-path" width="22" height="22" y="279"/><view id="sprite-icon-path-view" viewBox="0 279 22 22"/><symbol id="sprite-icon-phone" fill="none" viewBox="0 0 22 22"><path stroke="#2D383F" stroke-linecap="round" stroke-linejoin="round" d="M19.32 20.04a1.7 1.7 0 0 1-1.68.95l-.9-.12a18.75 18.75 0 0 1-15.61-15.67l-.12-.9a1.7 1.7 0 0 1 .94-1.7l2.75-1.4c1.07-.55 2.35.09 2.73 1.23a19 19 0 0 0 1.3 3.02c.4.76.13 1.74-.66 2.1a1.8 1.8 0 0 0-.52 2.9l3.95 3.98a1.8 1.8 0 0 0 2.9-.53 1.6 1.6 0 0 1 2.21-.72 19 19 0 0 0 2.93 1.2c1.16.36 1.81 1.67 1.26 2.75z"/></symbol><use xlink:href="#sprite-icon-phone" width="22" height="22" y="301"/><view id="sprite-icon-phone-view" viewBox="0 301 22 22"/><symbol id="sprite-icon-pin" fill="none" viewBox="0 0 9 12"><path fill="#fff" d="M4.5 0a4.46 4.46 0 0 0-4.5 4.42q0 .95.4 1.8a28 28 0 0 0 3.91 5.7.25.25 0 0 0 .38 0c.63-.73 2.8-3.28 3.92-5.7q.39-.85.39-1.8a4.47 4.47 0 0 0-4.5-4.42m0 6.71a2.3 2.3 0 0 1-2.34-2.3 2.3 2.3 0 0 1 2.34-2.29 2.3 2.3 0 0 1 2.34 2.3c0 1.26-1.05 2.3-2.34 2.3Z"/></symbol><use xlink:href="#sprite-icon-pin" width="9" height="12" y="323"/><view id="sprite-icon-pin-view" viewBox="0 323 9 12"/><symbol id="sprite-icon-pinstroke" fill="none" viewBox="0 0 16 22"><path stroke="#2D383F" stroke-linecap="round" stroke-linejoin="round" d="M15.5 8.15c0-3.95-3.36-7.15-7.5-7.15s-7.5 3.2-7.5 7.15v.43c0 1.58.52 3.12 1.48 4.4l6 8.01h.03l6-8a7.3 7.3 0 0 0 1.49-4.41z"/><path stroke="#2D383F" stroke-linecap="round" stroke-linejoin="round" d="M6.53 5.29a3.5 3.5 0 0 1 2.94 0c.92.42 1.6 1.23 1.82 2.18a3.1 3.1 0 0 1-.65 2.73 3.4 3.4 0 0 1-2.64 1.21c-1.03 0-2-.45-2.64-1.21a3.1 3.1 0 0 1-.65-2.73c.22-.95.9-1.76 1.82-2.18"/></symbol><use xlink:href="#sprite-icon-pinstroke" width="16" height="22" y="335"/><view id="sprite-icon-pinstroke-view" viewBox="0 335 16 22"/><symbol id="sprite-icon-reddit" fill="none" viewBox="0 0 14 15"><path fill="#2D383F" d="M8.36 0c-.45 0-.87.24-1.14.6-.27.35-.42.78-.53 1.23-.17.73-.22 1.53-.23 2.26-1.27.09-2.4.49-3.36 1.1a2 2 0 0 0-1.3-.53c-.5.01-.98.24-1.34.72-.68.92-.6 2.42.2 3.31q-.1.42-.1.84c0 3.02 2.89 5.47 6.44 5.47s6.43-2.45 6.43-5.47q0-.42-.08-.84c.79-.89.87-2.39.19-3.3a1.7 1.7 0 0 0-1.35-.73c-.44 0-.9.2-1.3.54a7 7 0 0 0-3.33-1.11c.02-.67.06-1.37.19-1.9a2 2 0 0 1 .27-.69c.1-.13.17-.18.34-.18.37 0 .41.12.63.43q.15.23.44.53a1 1 0 0 0 .84.35v-1.31c-.1 0-.11 0-.17-.07q-.09-.1-.27-.37c-.26-.35-.74-.88-1.47-.88m3.54.12c-.84 0-1.53.83-1.53 1.85s.69 1.85 1.53 1.85 1.53-.83 1.53-1.85-.68-1.85-1.53-1.85m0 .66c.55 0 .99.54.99 1.2s-.44 1.18-.99 1.18c-.54 0-.99-.53-.99-1.19s.45-1.19 1-1.19Zm-4.9 4.34c3.01 0 5.57 2.02 5.57 4.41s-2.56 4.42-5.57 4.42-5.57-2.02-5.57-4.42 2.56-4.41 5.57-4.41m-5.17.6q.22 0 .46.12a5 5 0 0 0-1.28 1.72c-.2-.5-.15-1.14.1-1.48a.9.9 0 0 1 .72-.37Zm10.34 0q.43 0 .72.36c.25.34.3.97.1 1.48a5 5 0 0 0-1.28-1.72q.24-.12.46-.13Zm-7.35 1.64c-.54 0-.99.53-.99 1.19s.45 1.19 1 1.19c.54 0 .98-.53.98-1.2 0-.65-.44-1.18-.99-1.18m4.36 0c-.55 0-.99.53-.99 1.19s.44 1.19.99 1.19c.54 0 .99-.53.99-1.2 0-.65-.45-1.18-1-1.18Zm-4.89 4.04a3 3 0 0 0 2.71 1.71 3 3 0 0 0 2.72-1.7c-.63.48-1.62.82-2.72.82s-2.08-.34-2.7-.83Z"/></symbol><use xlink:href="#sprite-icon-reddit" width="14" height="15" y="357"/><view id="sprite-icon-reddit-view" viewBox="0 357 14 15"/><symbol id="sprite-icon-shield" fill="none" viewBox="0 0 20 22"><path stroke="#0266C1" d="m7.75 10.91 2.25 2.25 3.94-3.93m-3.94-8.23a16.6 16.6 0 0 1-8.62 1.78 16.5 16.5 0 0 0 8.62 18.22 16.6 16.6 0 0 0 8.75-11.82 16 16 0 0 0-.13-6.4 16.6 16.6 0 0 1-8.62-1.78Z"/></symbol><use xlink:href="#sprite-icon-shield" width="20" height="22" y="372"/><view id="sprite-icon-shield-view" viewBox="0 372 20 22"/><symbol id="sprite-icon-star" fill="none" viewBox="0 0 16 14"><path fill="#fff" fill-rule="evenodd" d="m7.63 9.55 3.19 1.76-.84-3.31 2.68-2.13-3.54-.28-1.49-3.2-1.48 3.2-3.54.28 2.68 2.13-.84 3.3zm-4.71 3.75 1.24-4.92-4.16-3.3 5.49-.44 2.14-4.64 2.15 4.64 5.49.43-4.17 3.31 1.25 4.92-4.72-2.6z" clip-rule="evenodd"/></symbol><use xlink:href="#sprite-icon-star" width="16" height="14" y="394"/><view id="sprite-icon-star-view" viewBox="0 394 16 14"/><symbol id="sprite-icon-sun" fill="none" viewBox="0 0 20 20"><path fill="#fff" d="M13.54 6.46a5 5 0 0 0-3.54-1.49 5.04 5.04 0 0 0-5.03 5.03 5.04 5.04 0 0 0 8.57 3.54 4.93 4.93 0 0 0 0-7.09Zm-.95 6.13a3.7 3.7 0 0 1-2.59 1.06c-1 0-1.93-.4-2.6-1.06a3.7 3.7 0 0 1-1.05-2.59c0-1 .4-1.93 1.06-2.6a3.7 3.7 0 0 1 2.59-1.05c1 0 1.93.4 2.6 1.06a3.7 3.7 0 0 1 1.05 2.59c0 1-.4 1.93-1.06 2.6Zm6.72-3.28h-2.03a.7.7 0 0 0-.7.69c0 .37.32.69.7.69h2.03a.7.7 0 0 0 .69-.69.7.7 0 0 0-.69-.69m-9.31 7.28a.7.7 0 0 0-.69.69v2.03c0 .37.32.69.69.69a.7.7 0 0 0 .69-.69v-2.03a.7.7 0 0 0-.69-.7Zm7.06-.48-1.45-1.45c-.24-.27-.69-.27-.95 0a.67.67 0 0 0 0 .95l1.45 1.45c.27.27.69.27.95 0a.67.67 0 0 0 0-.95m-7.06-16.11a.7.7 0 0 0-.69.69v2.03c0 .38.32.7.69.7a.7.7 0 0 0 .69-.7v-2.03a.7.7 0 0 0-.69-.69m7.09 2.94a.67.67 0 0 0-.95 0l-1.46 1.45a.67.67 0 0 0 0 .95c.24.27.69.27.95 0l1.46-1.45a.67.67 0 0 0 0-.95m-14.37 6.37h-2.03a.7.7 0 0 0-.69.69c0 .37.3.69.69.69h2.03a.7.7 0 0 0 .7-.69.7.7 0 0 0-.7-.69m2.6 5.35c-.24-.27-.69-.27-.95 0l-1.46 1.45a.67.67 0 0 0 0 .95c.26.27.69.27.95 0l1.46-1.45a.67.67 0 0 0 0-.95m0-10.26-1.46-1.46a.67.67 0 0 0-.95 0 .67.67 0 0 0 0 .95l1.46 1.45c.26.27.68.27.95 0a.67.67 0 0 0 0-.95Z"/></symbol><use xlink:href="#sprite-icon-sun" width="20" height="20" y="408"/><view id="sprite-icon-sun-view" viewBox="0 408 20 20"/><symbol id="sprite-icon-vk" fill="none" viewBox="0 0 16 9"><path fill="#2D383F" d="M15.86 8.03c-.05-.07-.31-.64-1.6-1.81-1.33-1.23-1.15-1.03.46-3.15.99-1.3 1.38-2.08 1.26-2.42-.12-.32-.84-.24-.84-.24l-2.4.02s-.19-.03-.32.05-.21.26-.21.26-.38 1-.9 1.85c-1.06 1.79-1.5 1.88-1.67 1.77-.4-.26-.3-1.04-.3-1.6 0-1.74.27-2.46-.52-2.65-.26-.06-.46-.1-1.13-.1-.85-.02-1.58 0-2 .2-.27.13-.48.42-.35.44.16.02.52.1.71.35.25.33.24 1.07.24 1.07s.14 2.05-.33 2.3c-.33.18-.77-.18-1.73-1.8-.48-.84-.85-1.76-.85-1.76s-.08-.17-.2-.26a1 1 0 0 0-.37-.15l-2.29.01s-.34.01-.47.16c-.11.13 0 .4 0 .4s1.78 4.13 3.81 6.21c1.86 1.9 3.97 1.78 3.97 1.78h.95s.3-.03.44-.19c.14-.14.13-.41.13-.41s-.02-1.27.58-1.45c.59-.18 1.34 1.22 2.14 1.76.6.41 1.06.32 1.06.32l2.14-.03s1.12-.07.59-.93"/></symbol><use xlink:href="#sprite-icon-vk" width="16" height="9" y="428"/><view id="sprite-icon-vk-view" viewBox="0 428 16 9"/><symbol id="sprite-logotype" fill="inherit" viewBox="0 0 142 42"><path d="m15.73 27.24 3.77-3.88 4.29 3.88h7.34l-11.68-11.24-11.58 11.24z"/><path d="m26.52 9.2-5.56 5.56 3.67 3.7 1.89-1.85 10.31 10.08a16.5 16.5 0 0 1-15.5 10.55c-9.13 0-16.53-7.27-16.53-16.24a16.45 16.45 0 0 1 16.58-16.24c8.1 0 14.89 5.79 16.25 13.33l5 5.18a20.7 20.7 0 0 0-6.12-17.11 21.4 21.4 0 0 0-15.13-6.16 21.4 21.4 0 0 0-15.12 6.15 20.6 20.6 0 0 0-6.26 14.85 20.6 20.6 0 0 0 6.26 14.85 21.4 21.4 0 0 0 15.12 6.15c5.7 0 11.07-2.17 15.12-6.15a20.5 20.5 0 0 0 5.28-8.56c.19-.55.33-1.16.47-1.71l-4.33-4.49zm33.89 4.3h3.15l-1.72 8.46h5.3l-.5 2.45h-8.45zm9.69 0h3.15l-2.22 10.91h-3.15zm8.04 2.38-.5 2.4h4.91l-.49 2.39h-4.89l-.76 3.74h-3.15l2.23-10.92h8.7l-.5 2.4zm10.14 0-.36 1.84h4.93l-.46 2.31h-4.95l-.4 2h5.83l-.5 2.38h-8.92l2.23-10.92h8.7l-.5 2.4zm9.92.06h-3.41l.5-2.45h9.97l-.51 2.45h-3.4l-1.73 8.47h-3.15zm11.85 8.69q-1.68 0-2.94-.6a4.6 4.6 0 0 1-1.92-1.7 4.7 4.7 0 0 1-.66-2.5 6.2 6.2 0 0 1 3.34-5.7 7.6 7.6 0 0 1 3.6-.85q1.69 0 2.92.6a4.5 4.5 0 0 1 2.6 4.2 6.5 6.5 0 0 1-.89 3.37q-.87 1.5-2.46 2.34a7.5 7.5 0 0 1-3.59.84m.27-2.56a3.3 3.3 0 0 0 3.07-1.88 4 4 0 0 0 .43-1.92 2.3 2.3 0 0 0-.7-1.77 2.6 2.6 0 0 0-1.92-.67 3.3 3.3 0 0 0-3.07 1.9 4 4 0 0 0-.43 1.91q0 1.1.69 1.78.69.65 1.93.65m12.58 2.56q-1.45 0-2.5-.47a3.6 3.6 0 0 1-1.6-1.37 4 4 0 0 1-.56-2.09q0-.5.13-1.15l1.24-6.06h3.14l-1.22 6q-.1.47-.1.87 0 1.71 1.85 1.71 1 0 1.57-.59.6-.6.87-1.98l1.23-6h3.1l-1.26 6.19q-1.02 4.95-5.9 4.94Zm18.52-7.66q0 1.5-.81 2.6a4.6 4.6 0 0 1-2.28 1.57l1.9 3.27h-3.3l-1.64-2.9h-1.6l-.58 2.9h-3.14l2.22-10.92h4.75q2.13 0 3.3.92a3 3 0 0 1 1.18 2.56m-3.18.3q0-.67-.46-1a2 2 0 0 0-1.29-.34h-1.65l-.67 3.2h1.88q1.05 0 1.62-.49c.57-.49.57-.78.57-1.37m-77.96 17.43q-.57 0-1.04-.24a2 2 0 0 1-.73-.7 2 2 0 0 1-.26-.98 1.9 1.9 0 0 1 .99-1.68q.47-.26 1.04-.26c.57 0 .73.09 1.03.25a1.9 1.9 0 0 1 1 1.68 1.9 1.9 0 0 1-1 1.68q-.45.26-1.03.26Zm0-.35q.45 0 .83-.2a1.5 1.5 0 0 0 .79-1.38q0-.45-.21-.8a1.5 1.5 0 0 0-.58-.56q-.37-.2-.83-.2t-.83.2a1.5 1.5 0 0 0-.8 1.36q0 .45.21.81.22.36.59.57.38.2.83.2m4.41-2.55q.4 0 .74.18a1.3 1.3 0 0 1 .7 1.27 1.3 1.3 0 0 1-.7 1.27q-.33.18-.74.18a1.2 1.2 0 0 1-1.1-.56v1.59h-.4v-3.91h.38v.56q.17-.27.46-.43t.66-.15m-.03 2.56q.3 0 .55-.14t.39-.4.14-.57q0-.33-.14-.58a1 1 0 0 0-.39-.4 1 1 0 0 0-.55-.14q-.31 0-.56.15a1 1 0 0 0-.38.4q-.15.24-.14.57a1.1 1.1 0 0 0 .52.98q.25.13.56.13m4.37-2.2h-1.66v2.51h-.4v-2.85h2.06zm1.57-.36q.57 0 .87.28t.3.83v1.76h-.37v-.44a1 1 0 0 1-.4.35q-.24.12-.6.12-.48 0-.77-.23a.7.7 0 0 1-.29-.6q0-.36.26-.59.28-.22.86-.22h.92v-.17q0-.37-.2-.56a1 1 0 0 0-.62-.2 1.5 1.5 0 0 0-.97.34l-.17-.29a2 2 0 0 1 1.18-.38m-.14 2.6q.33 0 .57-.15.24-.16.35-.43v-.47h-.9q-.75 0-.75.51 0 .25.19.4.19.14.54.14m2.36-2.58h.4v1.26h1.82v-1.26h.4v2.85h-.4v-1.25h-1.83v1.25h-.39zm3.73 0h.39v2.27l1.94-2.27h.35v2.85h-.4v-2.26l-1.93 2.26h-.35zm5.15 1.37a1 1 0 0 1 .48.24.6.6 0 0 1 .17.42q0 .26-.17.45-.18.2-.47.3a2.2 2.2 0 0 1-1.28.02q-.3-.09-.53-.27l.13-.28a2 2 0 0 0 1 .3q.4 0 .66-.14c.26-.14.26-.24.26-.4a.4.4 0 0 0-.21-.36 1 1 0 0 0-.58-.13h-.5v-.28h.48q.33 0 .53-.12.2-.14.2-.33 0-.23-.23-.36a1 1 0 0 0-.58-.13q-.46 0-.93.23l-.1-.3q.51-.26 1.07-.26.33 0 .6.1a1 1 0 0 1 .41.26q.16.18.16.4c0 .22-.05.28-.16.39q-.15.17-.4.25Zm2.54-1.39q.57 0 .87.28t.3.83v1.76h-.37v-.44a1 1 0 0 1-.39.35 1.4 1.4 0 0 1-.6.12q-.5 0-.78-.23a.7.7 0 0 1-.29-.6q0-.36.27-.59t.85-.22h.93v-.17q0-.37-.21-.56c-.21-.19-.35-.2-.62-.2a1.5 1.5 0 0 0-.96.34l-.18-.29a2 2 0 0 1 1.18-.38m-.14 2.6q.34 0 .57-.15a.8.8 0 0 0 .36-.43v-.47h-.92q-.75 0-.74.51 0 .25.2.4.18.14.53.14m5.39-.06v1.05h-.37v-.72h-2.66v-2.85h.4v2.52h1.77v-2.52h.39v2.52zm.75-2.52h.4v2.27l1.93-2.27h.35v2.85h-.4v-2.26l-1.93 2.26h-.35zm6.03 0v2.85h-.36v-.94h-1.02l-.67.94h-.43l.73-1a1 1 0 0 1-.52-.3 1 1 0 0 1-.18-.57q0-.48.33-.73t.9-.25zm-2.06.99q0 .63.83.63h.87v-1.28h-.85q-.84 0-.85.65m7.23-.99v2.85h-.39v-2.5h-1.82v2.5h-.4v-2.85zm2.32 2.88a1.4 1.4 0 0 1-1.48-1.45q0-.42.2-.75.19-.34.52-.52.34-.18.76-.18c.42 0 .53.06.76.18a1.5 1.5 0 0 1 .72 1.27 1.5 1.5 0 0 1-.72 1.27 2 2 0 0 1-.76.18m0-.34q.3 0 .55-.14t.39-.4.14-.57q0-.33-.14-.58a1 1 0 0 0-.39-.4 1 1 0 0 0-.55-.14q-.31 0-.56.15a1 1 0 0 0-.39.39 1 1 0 0 0-.13.58q0 .31.13.58.15.25.4.4.24.13.55.13m4.03.31-.93-1.19-.92 1.2h-.44l1.14-1.47-1.09-1.39h.44l.88 1.12.87-1.12h.43l-1.1 1.39 1.16 1.46zm2.18.03a1.4 1.4 0 0 1-1.48-1.45 1.5 1.5 0 0 1 .73-1.27q.33-.18.75-.18c.42 0 .54.06.76.18a1.5 1.5 0 0 1 .72 1.26 1.5 1.5 0 0 1-.72 1.28q-.33.18-.76.18m0-.34q.32 0 .56-.14t.38-.4q.15-.25.14-.57 0-.33-.14-.58a1 1 0 0 0-.38-.4 1 1 0 0 0-.56-.14q-.3 0-.55.15a1 1 0 0 0-.4.39 1.3 1.3 0 0 0 .01 1.16q.14.25.39.4.24.13.55.13m5.13-.02v1.02h-.37v-.69h-2.6v.7h-.37v-1.03h.17q.3-.01.4-.43.1-.4.14-1.13l.04-.96h2.14v2.52zm-2.27-1.54q-.03.6-.1 1-.09.39-.28.54h1.8v-2.18h-1.39zm4.24 1.9a1.4 1.4 0 0 1-1.48-1.45q0-.42.19-.75c.19-.33.3-.4.53-.52q.33-.18.76-.18c.43 0 .53.06.75.18a1.5 1.5 0 0 1 .73 1.27q0 .41-.2.75-.19.33-.53.52-.33.18-.75.18m0-.34q.3 0 .55-.14t.39-.4q.13-.25.13-.57 0-.33-.13-.58a1 1 0 0 0-.39-.4 1.1 1.1 0 0 0-1.11.01 1 1 0 0 0-.39.39 1.3 1.3 0 0 0 0 1.16q.15.25.39.4.24.13.56.13m4.16-1.16q.6.13.6.7 0 .38-.29.57-.28.2-.84.2h-1.32v-2.85h1.28q.5 0 .78.19t.28.54q0 .24-.13.4t-.36.25m-1.47-.11h.88q.33 0 .5-.13a.4.4 0 0 0 .2-.36.4.4 0 0 0-.2-.36 1 1 0 0 0-.5-.12h-.88zm.92 1.28q.38 0 .57-.12t.19-.37c0-.25-.06-.3-.18-.38q-.16-.12-.54-.12h-.96v.99zm5.36-1.17q.6.13.59.7 0 .38-.28.57-.3.2-.84.2h-1.32v-2.85h1.28q.5 0 .78.19c.28.19.28.3.28.54q0 .24-.13.4t-.36.25m-1.47-.11h.87q.34 0 .52-.13a.4.4 0 0 0 .18-.36.4.4 0 0 0-.19-.36 1 1 0 0 0-.5-.12h-.88zm.92 1.28q.38 0 .56-.12a.4.4 0 0 0 .2-.37q0-.26-.18-.38t-.54-.12h-.96v.99zm5.56-2.21h-1.66v2.51h-.4v-2.85h2.06zm1.63 2.54a1.4 1.4 0 0 1-1.48-1.45q0-.42.2-.75.19-.33.52-.52.34-.18.76-.18c.42 0 .53.06.76.18a1.5 1.5 0 0 1 .72 1.26 1.5 1.5 0 0 1-.72 1.28 2 2 0 0 1-.76.18m0-.34q.3 0 .55-.14t.39-.4.14-.57q0-.33-.14-.58a1 1 0 0 0-.39-.4 1 1 0 0 0-.55-.14q-.31 0-.56.15a1 1 0 0 0-.38.39q-.14.25-.14.58 0 .31.14.58.14.25.38.4.25.13.56.13m3.81-2.56q.4 0 .74.18c.34.18.4.3.52.51a1.6 1.6 0 0 1-.01 1.52q-.18.33-.51.51a1.5 1.5 0 0 1-.74.18 1.2 1.2 0 0 1-1.1-.56v1.59h-.4v-3.91h.38v.56q.18-.28.46-.43.3-.15.66-.15m-.03 2.56q.3 0 .55-.14a1 1 0 0 0 .53-.97q0-.33-.14-.58a1 1 0 0 0-.39-.4 1 1 0 0 0-.55-.14q-.3 0-.56.15a1 1 0 0 0-.38.4 1.3 1.3 0 0 0 0 1.15q.14.25.38.4.26.13.56.13m3.54-1.53q.55 0 .83.24.3.23.3.67t-.32.7q-.3.24-.88.24h-1.15v-2.86h.4v1h.82Zm1.6-1.01h.4v2.85h-.4zm-1.7 2.57q.42 0 .61-.16.21-.17.21-.49 0-.3-.2-.47-.2-.15-.61-.15l-.74-.01v1.27h.74Z"/></symbol><use xlink:href="#sprite-logotype" width="142" height="42" y="437"/><view id="sprite-logotype-view" viewBox="0 437 142 42"/></svg>